<?xml version="1.0" encoding="UTF-8"?>
<svg xmlns="http://www.w3.org/2000/svg" xmlns:xlink="http://www.w3.org/1999/xlink" width="480px" height="480px" viewBox="0 0 480 480" version="1.1">
<g id="surface10531">
<path style=" stroke:none;fill-rule:nonzero;fill:rgb(82.745098%,18.431373%,18.431373%);fill-opacity:1;" d="M 30 100 L 450 100 L 450 390 L 30 390 Z M 30 100 "/>
<path style=" stroke:none;fill-rule:nonzero;fill:rgb(82.745098%,18.431373%,18.431373%);fill-opacity:1;" d="M 240 310 C 212.386719 310 190 332.386719 190 360 C 190 387.613281 212.386719 410 240 410 C 267.613281 410 290 387.613281 290 360 C 290 332.386719 267.613281 310 240 310 Z M 240 310 "/>
<path style=" stroke:none;fill-rule:nonzero;fill:rgb(29.803922%,3.137255%,3.137255%);fill-opacity:1;" d="M 240 330 C 223.429688 330 210 343.429688 210 360 C 210 376.570312 223.429688 390 240 390 C 256.570312 390 270 376.570312 270 360 C 270 343.429688 256.570312 330 240 330 Z M 240 330 "/>
<path style=" stroke:none;fill-rule:nonzero;fill:rgb(84.313725%,80%,78.431373%);fill-opacity:1;" d="M 400 70 L 250 100 L 230 100 L 80 70 L 60 120 L 60 360 L 420 360 L 420 120 Z M 400 70 "/>
<path style=" stroke:none;fill-rule:nonzero;fill:rgb(73.72549%,66.666667%,64.313725%);fill-opacity:1;" d="M 80 330.011719 L 230 330.011719 L 230 360 L 250 360 L 250 330.011719 L 400 330 L 420 360 L 60 360 Z M 80 330.011719 "/>
<path style=" stroke:none;fill-rule:nonzero;fill:rgb(93.72549%,92.156863%,91.372549%);fill-opacity:1;" d="M 400 70 C 400 70 250 70 250 100 C 250 130 250 360 250 360 C 250 330 400 330 400 330 Z M 80 70 C 80 70 230 70 230 100 C 230 130 230 360 230 360 C 230 330 80 330 80 330 Z M 80 70 "/>
<path style=" stroke:none;fill-rule:nonzero;fill:rgb(73.72549%,66.666667%,64.313725%);fill-opacity:1;" d="M 230 100 L 250 100 L 250 360 L 230 360 Z M 230 100 "/>
</g>
</svg>
